# xmcd CD database file
#
# Track frame offsets:
#	150
#	67599
#	126458
#	143999
#	172893
#	209236
#	255247
#	275510
#
# Disc length: 4112 seconds
#
# Revision: 0
# Processed by: cddbd v1.5.2PL0 Copyright (c) Steve Scherf et al.
# Submitted via: CDex 1.70beta2
#
DISCID=76100e08
DTITLE=Franco  D'Andrea with Fabrizio Bosso - jazzitaliano live 2007
DYEAR=2007
DGENRE=Jazz
TTITLE0=Medley: March, King Porter Stomp, Misterioso, M 3, Half the fun
TTITLE1=Medley: Savoy blues, Turkish mambo, Caravan
TTITLE2=Deep
TTITLE3=I've found a new baby
TTITLE4=Medley: Epistrophy, Grapes
TTITLE5=Medley: Lychees, Two colours
TTITLE6=March
TTITLE7=FRANCO D'ANDREA special guest FABRIZIO BOSSO - Medley: Rag and blues, Turkish mambo
EXTD=YEAR: 2007
EXTT0=
EXTT1=
EXTT2=
EXTT3=
EXTT4=
EXTT5=
EXTT6=
EXTT7=
PLAYORDER=
